<svg xmlns="http://www.w3.org/2000/svg" width="2562" height="3302" viewBox="0 0 2562 3302" version="1.1">
	<path d="M 1248.500 151.593 C 1224.901 153.007, 1208.057 154.355, 1192.500 156.075 C 893.700 189.100, 638.020 383.501, 525.783 663 C 497.170 734.253, 479.020 809.340, 471.034 889.500 C 466.627 933.737, 466.635 995.682, 471.054 1041.500 C 492.457 1263.427, 601.052 1464.201, 774.500 1602.522 C 865.435 1675.041, 970.463 1726.932, 1084 1755.437 C 1151.984 1772.505, 1209.566 1779.496, 1282 1779.474 C 1342.304 1779.456, 1384.348 1775.451, 1439.968 1764.424 C 1644 1723.976, 1824.398 1607.585, 1944.782 1438.722 C 2033.968 1313.621, 2085.080 1169.263, 2094.978 1014.517 C 2095.540 1005.726, 2096 983.669, 2096 965.500 C 2096 931.765, 2095.142 912.470, 2092.419 885 C 2079.883 758.502, 2037.515 635.893, 1969.231 528.500 C 1890.105 404.054, 1778.360 303.278, 1646.010 237.005 C 1552.559 190.211, 1452.592 162.464, 1345 153.457 C 1327.759 152.014, 1262.507 150.753, 1248.500 151.593 M 1399 649.594 C 1394.542 651.525, 1390.312 655.534, 1388.021 660 C 1387.034 661.925, 1328.942 797.600, 1258.928 961.500 L 1131.631 1259.500 1131.592 1266.500 C 1131.549 1274.134, 1132.857 1277.564, 1137.657 1282.414 C 1148.176 1293.042, 1166.712 1290.127, 1173.626 1276.756 C 1176.943 1270.341, 1429.059 678.495, 1430.063 674.765 C 1432.637 665.206, 1426.538 653.628, 1416.782 649.553 C 1412.098 647.596, 1403.567 647.616, 1399 649.594 M 1479.718 726.102 C 1471.883 727.925, 1466.387 732.446, 1463.429 739.500 C 1461.283 744.618, 1461.348 752.778, 1463.573 757.674 C 1464.748 760.263, 1499.787 796.032, 1571.897 868.257 L 1678.483 975.014 1570.776 1082.757 C 1494.564 1158.994, 1462.620 1191.587, 1461.534 1194.218 C 1459.476 1199.206, 1459.627 1207.586, 1461.866 1212.500 C 1464.624 1218.556, 1470.792 1223.586, 1477.227 1225.026 C 1481.858 1226.063, 1483.529 1225.992, 1488.579 1224.543 L 1494.500 1222.844 1609.814 1107.672 C 1673.236 1044.328, 1726.717 990.356, 1728.660 987.735 C 1733.065 981.793, 1734.242 973.538, 1731.650 966.756 C 1730.326 963.291, 1708.126 940.617, 1612.262 844.817 C 1503.127 735.755, 1494.207 727.086, 1490.500 726.480 C 1488.300 726.120, 1485.825 725.690, 1485 725.524 C 1484.175 725.358, 1481.798 725.618, 1479.718 726.102 M 1074.500 726.955 C 1072.300 727.315, 1069.375 728.197, 1068 728.915 C 1066.625 729.633, 1013.139 782.483, 949.142 846.360 C 861.845 933.493, 832.293 963.575, 830.820 966.806 C 828.257 972.427, 828.257 980.573, 830.820 986.194 C 832.293 989.424, 861.733 1019.397, 948.642 1106.148 C 1012.364 1169.754, 1066.049 1222.573, 1067.942 1223.523 C 1072.863 1225.992, 1082.473 1225.819, 1087.669 1223.169 C 1092.345 1220.784, 1096.646 1216.069, 1098.769 1211.002 C 1100.848 1206.039, 1099.926 1196.154, 1096.980 1191.824 C 1095.736 1189.996, 1047.081 1140.799, 988.859 1082.498 L 883 976.496 989.086 870.498 C 1047.434 812.199, 1096.296 762.762, 1097.670 760.637 C 1104.670 749.811, 1099.367 732.784, 1087.703 728.634 C 1081.837 726.547, 1079.113 726.201, 1074.500 726.955 M 2093.500 2080.683 C 2050.511 2084.413, 2014.865 2093.572, 1983.355 2108.984 C 1943.436 2128.508, 1913.916 2154.849, 1891.694 2190.774 C 1866.627 2231.297, 1854.513 2283.528, 1857.779 2337 C 1860.159 2375.968, 1868.010 2405.509, 1883.719 2434.602 C 1907.103 2477.908, 1942.409 2509.471, 2004.252 2542.358 C 2022.738 2552.189, 2056.642 2566.740, 2111.974 2588.591 C 2152.631 2604.647, 2171.721 2612.824, 2191 2622.437 C 2237.848 2645.799, 2265.999 2669.521, 2281.860 2699 C 2286.935 2708.433, 2292.784 2725.800, 2294.639 2736.950 C 2296.796 2749.910, 2296.515 2773.327, 2294.056 2785.532 C 2289.027 2810.490, 2280.873 2826.255, 2264.562 2842.556 C 2254.161 2852.951, 2243.589 2860.427, 2230.569 2866.595 C 2191.004 2885.336, 2131.224 2889.982, 2078.500 2878.412 C 2033.943 2868.634, 1996.546 2848.990, 1968.496 2820.627 C 1947.066 2798.957, 1934.306 2777.816, 1927.624 2752.904 C 1923.490 2737.493, 1923 2730.236, 1923 2684.428 L 1923 2641 1893.078 2641 L 1863.157 2641 1862.712 2736.750 C 1862.260 2833.969, 1861.958 2843.684, 1857.508 2903.902 C 1856.678 2915.123, 1856 2924.685, 1856 2925.152 C 1856 2925.618, 1867.440 2926, 1881.422 2926 L 1906.845 2926 1907.874 2922.750 C 1908.440 2920.963, 1913.021 2906, 1918.054 2889.500 C 1923.088 2873, 1927.433 2859.127, 1927.711 2858.671 C 1927.988 2858.216, 1932.329 2861.835, 1937.358 2866.714 C 1962.842 2891.445, 1994.609 2909.521, 2034.500 2921.992 C 2096 2941.218, 2175.091 2941.787, 2235.633 2923.439 C 2318.878 2898.210, 2377.558 2840.215, 2400.494 2760.500 C 2409.958 2727.606, 2413.243 2686.092, 2409 2653 C 2401.330 2593.182, 2371.725 2545.590, 2318.952 2508.239 C 2287.746 2486.153, 2244.117 2465.103, 2175.500 2439.029 C 2117.380 2416.943, 2092.200 2406.370, 2069 2394.308 C 2038.536 2378.469, 2020.216 2365.527, 2004.490 2348.735 C 1980.527 2323.147, 1969.943 2297.876, 1968.344 2262.426 C 1966.169 2214.223, 1983.173 2178.689, 2019.500 2155.524 C 2043.791 2140.034, 2078.820 2131.987, 2121.856 2132.009 C 2164.130 2132.031, 2200.987 2140.648, 2231.500 2157.644 C 2260.078 2173.562, 2279.226 2193.213, 2292.773 2220.525 C 2303.735 2242.627, 2304.986 2251.556, 2304.994 2307.750 L 2305 2351 2334.937 2351 L 2364.874 2351 2365.262 2290.250 C 2365.578 2240.556, 2365.958 2227.134, 2367.347 2216.500 C 2370.684 2190.942, 2376.263 2157.969, 2382.869 2124.750 L 2389.581 2091 2364.041 2091.026 L 2338.500 2091.053 2322.665 2117.393 L 2306.831 2143.733 2297.165 2134.085 C 2268.421 2105.392, 2221.845 2087.105, 2163.204 2081.487 C 2149.216 2080.147, 2105.491 2079.643, 2093.500 2080.683 M 151 2120.956 L 151 2145 210 2145 L 269 2145 269 2508 L 269 2871 210 2871 L 151 2871 151 2895 L 151 2919 350.500 2919 L 550 2919 550 2895 L 550 2871 485.500 2871 L 421 2871 421 2509.895 L 421 2148.791 467.750 2149.293 C 516.445 2149.816, 526.967 2150.558, 548.500 2154.988 C 627.265 2171.190, 664.113 2220.485, 667.825 2314.619 C 669.989 2369.489, 662.914 2426.992, 649.998 2459.504 C 631.158 2506.932, 601.230 2533.463, 556.801 2542.123 C 544.466 2544.527, 521.013 2545.223, 503.233 2543.713 L 493.966 2542.926 494.233 2568.213 L 494.500 2593.500 501 2594.346 C 504.575 2594.811, 521 2595.247, 537.500 2595.314 C 560.618 2595.408, 570.940 2595.028, 582.496 2593.655 C 636.511 2587.239, 675.278 2574.951, 713.727 2552.059 C 767.477 2520.057, 804.597 2467.954, 819.925 2403 C 830.800 2356.915, 830.063 2301.724, 818.032 2261.259 C 791.901 2173.372, 717.759 2121.190, 594 2103.584 C 550.846 2097.444, 558.432 2097.638, 345.750 2097.258 L 151 2096.911 151 2120.956 M 904 2120.966 L 904 2145 963 2145 L 1022 2145 1022 2508 L 1022 2871 963 2871 L 904 2871 904 2895.037 L 904 2919.075 1126.250 2918.708 C 1344.501 2918.348, 1348.815 2918.303, 1366 2916.244 C 1449.604 2906.226, 1506.129 2887.986, 1560 2853.640 C 1614.416 2818.947, 1657.413 2766.016, 1683.377 2701.759 C 1708.376 2639.893, 1720.620 2563.893, 1718.623 2483 C 1717.447 2435.382, 1714.291 2406.025, 1706.367 2369.022 C 1683.855 2263.891, 1628.593 2189.481, 1540 2145.010 C 1498.942 2124.400, 1445.075 2109.190, 1389.500 2102.514 C 1347.754 2097.499, 1356.242 2097.665, 1122.750 2097.286 L 904 2096.932 904 2120.966 M 1172 2507.980 L 1172 2867.119 1252.250 2866.729 C 1337.839 2866.313, 1337.985 2866.306, 1364.935 2860.952 C 1413.609 2851.282, 1452.610 2829.459, 1482.803 2795 C 1503.588 2771.278, 1523.236 2732.795, 1534.498 2693.751 C 1562.800 2595.628, 1563.280 2421.716, 1535.528 2320.774 C 1525.453 2284.129, 1508.411 2248.659, 1489.550 2225.079 C 1483.180 2217.115, 1467.889 2202.003, 1459 2194.888 C 1430.660 2172.200, 1392.541 2157.786, 1345.103 2151.818 C 1329.872 2149.902, 1322.034 2149.692, 1250.250 2149.285 L 1172 2148.841 1172 2507.980 M 637.920 3089.991 C 632.343 3090.959, 626.232 3093.980, 621.568 3098.075 C 612.479 3106.054, 609.669 3121.735, 615.280 3133.161 C 616.809 3136.274, 619.787 3140.382, 621.899 3142.290 C 633.164 3152.467, 654.943 3152.535, 665.907 3142.426 C 669.278 3139.318, 669.396 3139.009, 667.818 3137.411 C 666.235 3135.808, 665.941 3135.873, 662.818 3138.508 C 657.583 3142.927, 652.153 3144.954, 645.500 3144.972 C 637.917 3144.993, 633.667 3143.809, 627.665 3140.002 C 618.323 3134.078, 615.121 3120.170, 620.578 3109.220 C 625.485 3099.373, 633.994 3094.558, 645.377 3095.189 C 653.273 3095.626, 658.658 3097.758, 662.707 3102.048 C 665.192 3104.680, 665.459 3104.745, 667.718 3103.265 L 670.104 3101.702 666.978 3098.477 C 660.323 3091.612, 648.493 3088.156, 637.920 3089.991 M 377 3119.846 L 377 3150 379.500 3150 L 382 3150 382 3136.131 L 382 3122.262 392.250 3121.797 C 406.498 3121.151, 410.746 3118.719, 413.118 3109.847 C 414.920 3103.112, 412.440 3096.928, 406.553 3093.478 C 402.829 3091.296, 400.647 3090.890, 389.639 3090.332 L 377 3089.691 377 3119.846 M 768.449 3091.551 C 764.452 3093.524, 762 3097.828, 762 3102.870 C 762 3108.919, 764.476 3112.991, 771.201 3118 C 774.523 3120.475, 779.212 3124.353, 781.621 3126.618 C 785.275 3130.055, 786 3131.355, 786 3134.468 C 786 3139.957, 780.768 3145, 775.074 3145 C 771.517 3145, 770.327 3144.379, 766.447 3140.500 C 761.589 3135.642, 760.821 3135.306, 759.154 3137.314 C 757.518 3139.286, 762.190 3145.546, 767.209 3148.106 C 770.389 3149.729, 772.594 3150.115, 776.716 3149.774 C 782.675 3149.279, 786.253 3147.148, 789.750 3142.010 C 794.700 3134.738, 791.631 3127.303, 779.839 3117.996 C 770.068 3110.285, 768.110 3108.287, 767.348 3105.250 C 766.492 3101.841, 768.786 3097.331, 772.066 3095.973 C 775.918 3094.377, 779.796 3095.461, 783.709 3099.226 C 786.404 3101.819, 787.165 3102.108, 788.459 3101.034 C 789.307 3100.331, 790 3099.219, 790 3098.565 C 790 3097.155, 785.415 3092.715, 782.316 3091.122 C 779.245 3089.544, 772.065 3089.767, 768.449 3091.551 M 902.764 3090.996 C 895 3093.334, 886.117 3102.122, 883.473 3110.081 C 876.657 3130.603, 891.389 3150.002, 913.788 3149.999 C 919.089 3149.999, 921.761 3149.401, 926.500 3147.155 C 940.152 3140.686, 946.319 3127.602, 942.586 3113.028 C 939.919 3102.619, 933.037 3094.916, 923.302 3091.444 C 919.132 3089.956, 907.089 3089.694, 902.764 3090.996 M 1132 3119.997 L 1132 3150.294 1146.250 3149.700 C 1163.265 3148.991, 1166.359 3148.196, 1172.233 3143.026 C 1178.658 3137.371, 1181.395 3130.640, 1181.395 3120.500 C 1181.395 3110.387, 1178.654 3103.626, 1172.281 3098.016 C 1166.250 3092.707, 1160.823 3091.174, 1145.250 3090.378 L 1132 3089.701 1132 3119.997 M 1233.750 3119.312 C 1226.188 3135.413, 1220 3148.905, 1220 3149.293 C 1220 3149.682, 1221.237 3149.989, 1222.750 3149.975 C 1225.246 3149.952, 1225.932 3149.030, 1230.184 3139.975 L 1234.867 3130 1248.015 3130 L 1261.163 3130 1265.832 3139.996 C 1270.132 3149.205, 1270.723 3149.993, 1273.333 3149.996 C 1274.892 3149.998, 1276.017 3149.593, 1275.833 3149.097 C 1274.401 3145.213, 1248.391 3090.004, 1248.001 3090.019 C 1247.726 3090.030, 1241.313 3103.212, 1233.750 3119.312 M 1391.186 3095.649 C 1386.990 3103.986, 1366 3148.844, 1366 3149.474 C 1366 3149.763, 1367.256 3150, 1368.790 3150 C 1371.350 3150, 1371.964 3149.172, 1376.207 3140 L 1380.834 3130 1393.953 3130 L 1407.072 3130 1411.786 3139.947 C 1416.047 3148.937, 1416.765 3149.899, 1419.250 3149.947 C 1420.763 3149.976, 1422 3149.781, 1422 3149.513 C 1422 3148.938, 1394.981 3090.662, 1394.476 3090.149 C 1394.286 3089.956, 1392.806 3092.431, 1391.186 3095.649 M 1516.420 3091.886 C 1513.090 3093.916, 1509.987 3099.380, 1510.022 3103.151 C 1510.082 3109.596, 1514.491 3114.797, 1527.714 3124.021 C 1538.324 3131.422, 1536.502 3143.400, 1524.561 3144.746 C 1520.196 3145.238, 1519.795 3145.058, 1515.348 3140.611 C 1512.039 3137.302, 1510.165 3136.130, 1508.849 3136.548 C 1506.241 3137.376, 1506.538 3138.984, 1510.094 3143.298 C 1520.219 3155.581, 1540.333 3149.686, 1540.333 3134.435 C 1540.333 3129.047, 1537.161 3124.635, 1528.624 3118.151 C 1518.283 3110.296, 1516 3107.664, 1516 3103.600 C 1516 3094.817, 1527.127 3092.261, 1532.979 3099.700 C 1534.576 3101.730, 1535.227 3101.949, 1536.945 3101.030 C 1539.474 3099.676, 1539.477 3099.479, 1537.020 3096.028 C 1532.896 3090.236, 1522.540 3088.154, 1516.420 3091.886 M 1601.500 3091.164 C 1594.428 3093.808, 1587.751 3099.720, 1584.181 3106.500 C 1581.944 3110.747, 1581.544 3112.780, 1581.524 3120 C 1581.504 3127.116, 1581.906 3129.294, 1583.991 3133.377 C 1587.214 3139.688, 1593.756 3145.386, 1600.853 3148.064 C 1608.173 3150.825, 1620.379 3150.441, 1626.551 3147.254 C 1648.184 3136.085, 1648.361 3105.232, 1626.859 3093.517 C 1622.325 3091.047, 1620.191 3090.554, 1613 3090.319 C 1608.325 3090.167, 1603.150 3090.547, 1601.500 3091.164 M 1686 3120 L 1686 3150 1700.500 3150 L 1715 3150 1715 3147.500 L 1715 3145 1703.500 3145 L 1692 3145 1692 3117.500 L 1692 3090 1689 3090 L 1686 3090 1686 3120 M 1756 3112.935 C 1756 3137.263, 1756.359 3139.609, 1760.814 3144.373 C 1764.681 3148.510, 1768.968 3150, 1777 3150 C 1787.872 3150, 1793.693 3146.962, 1797.119 3139.500 C 1798.728 3135.996, 1798.959 3132.678, 1798.978 3112.750 L 1799 3090 1796.500 3090 L 1794 3090 1793.978 3111.750 C 1793.953 3136.443, 1793.085 3140.353, 1786.923 3143.540 C 1782.419 3145.869, 1773.318 3145.805, 1768.412 3143.410 C 1761.545 3140.057, 1761.003 3137.780, 1761.002 3112.250 L 1761 3090 1758.500 3090 L 1756 3090 1756 3112.935 M 1977.627 3091.410 C 1969.765 3094.331, 1960.975 3103.667, 1958.927 3111.270 C 1953.411 3131.756, 1967.950 3150.002, 1989.788 3149.999 C 1998.621 3149.998, 2006.860 3146.238, 2012.789 3139.502 C 2025.112 3125.503, 2019.887 3101.748, 2002.500 3092.719 C 1997.317 3090.028, 1983.331 3089.291, 1977.627 3091.410 M 2159.898 3092.283 C 2157.740 3093.732, 2155.976 3096.070, 2155.063 3098.688 C 2152.219 3106.851, 2156.512 3113.923, 2169.577 3122.595 C 2172.696 3124.665, 2176.113 3127.741, 2177.172 3129.429 C 2180.875 3135.339, 2177.296 3143.291, 2170.347 3144.595 C 2164.660 3145.661, 2160.745 3143.757, 2156.674 3137.944 C 2155.022 3135.586, 2151 3136.003, 2151 3138.533 C 2151 3140.749, 2157.155 3147.167, 2160.702 3148.649 C 2171.519 3153.169, 2184.029 3146.016, 2184.177 3135.225 C 2184.257 3129.469, 2181.726 3125.587, 2173.746 3119.221 C 2161.939 3109.805, 2160 3107.632, 2160 3103.823 C 2160 3099.282, 2162.349 3096.213, 2166.407 3095.451 C 2170.219 3094.736, 2175.022 3096.766, 2177.335 3100.068 C 2178.609 3101.887, 2179.055 3101.983, 2180.896 3100.833 C 2182.053 3100.110, 2183 3099.263, 2183 3098.949 C 2183 3097.753, 2176.438 3091.737, 2174.208 3090.889 C 2169.885 3089.245, 2163.492 3089.868, 2159.898 3092.283 M 457 3120.500 L 457 3150 460 3150 L 463 3150 463 3136 L 463 3122 466.932 3122 L 470.863 3122 479.269 3135.750 C 486.961 3148.332, 487.944 3149.527, 490.837 3149.813 C 492.577 3149.986, 494 3149.834, 494 3149.477 C 494 3149.120, 490.388 3142.953, 485.973 3135.774 C 481.559 3128.594, 478.071 3122.638, 478.223 3122.537 C 478.376 3122.437, 480.625 3121.568, 483.222 3120.606 C 488.238 3118.747, 492.597 3114.455, 493.624 3110.363 C 494.560 3106.632, 493.384 3099.992, 491.291 3097.188 C 487.494 3092.102, 483.661 3091, 469.766 3091 L 457 3091 457 3120.500 M 538 3120.500 L 538 3150 555 3150 L 572 3150 572 3147.527 L 572 3145.055 557.750 3144.777 L 543.500 3144.500 543.500 3132.500 L 543.500 3120.500 552.250 3120.211 C 560.801 3119.929, 561 3119.866, 561 3117.461 C 561 3115.029, 560.895 3115, 552 3115 L 543 3115 543 3105.500 L 543 3096 557.500 3096 L 572 3096 572 3093.500 L 572 3091 555 3091 L 538 3091 538 3120.500 M 712 3120.500 L 712 3150 715 3150 L 718 3150 718 3120.500 L 718 3091 715 3091 L 712 3091 712 3120.500 M 834 3120.500 L 834 3150 836.500 3150 L 839 3150 839 3120.500 L 839 3091 836.500 3091 L 834 3091 834 3120.500 M 987 3120.500 L 987 3150 989.981 3150 L 992.962 3150 993.231 3127.554 L 993.500 3105.109 1012.982 3127.554 C 1023.696 3139.899, 1032.584 3150, 1032.732 3150 C 1032.879 3150, 1033 3136.725, 1033 3120.500 L 1033 3091 1030.519 3091 L 1028.038 3091 1027.769 3113.533 L 1027.500 3136.065 1008 3113.562 C 997.275 3101.185, 988.163 3091.045, 987.750 3091.029 C 987.337 3091.013, 987 3104.275, 987 3120.500 M 1305 3093.500 C 1305 3095.910, 1305.233 3096, 1311.500 3096 L 1318 3096 1318 3123 L 1318 3150 1321 3150 L 1324 3150 1324 3123 L 1324 3096 1330.500 3096 C 1336.767 3096, 1337 3095.910, 1337 3093.500 L 1337 3091 1321 3091 L 1305 3091 1305 3093.500 M 1839 3093.500 C 1839 3095.910, 1839.233 3096, 1845.500 3096 L 1852 3096 1852 3123 L 1852 3150 1854.500 3150 L 1857 3150 1857 3123 L 1857 3096 1864 3096 C 1870.800 3096, 1871 3095.929, 1871 3093.500 L 1871 3091 1855 3091 L 1839 3091 1839 3093.500 M 1910 3120.500 L 1910 3150 1912.500 3150 L 1915 3150 1915 3120.500 L 1915 3091 1912.500 3091 L 1910 3091 1910 3120.500 M 2063 3120.417 L 2063 3150 2065.981 3150 L 2068.962 3150 2069.231 3127.595 L 2069.500 3105.191 2088.973 3127.595 C 2099.683 3139.918, 2108.570 3150, 2108.723 3150 C 2108.875 3150, 2109 3136.725, 2109 3120.500 L 2109 3091 2106.519 3091 L 2104.038 3091 2103.769 3113.544 L 2103.500 3136.089 2084.114 3113.794 C 2073.452 3101.532, 2064.339 3091.350, 2063.864 3091.167 C 2063.389 3090.983, 2063 3104.146, 2063 3120.417 M 903.242 3096.494 C 894.448 3100.316, 888.292 3108.769, 887.300 3118.386 C 885.800 3132.918, 897.217 3144.956, 912.500 3144.956 C 926.854 3144.956, 938.014 3134.154, 937.990 3120.283 C 937.966 3105.872, 926.999 3095.020, 912.500 3095.061 C 909.200 3095.071, 905.034 3095.715, 903.242 3096.494 M 1600.907 3097.486 C 1595.642 3100.229, 1590.443 3105.737, 1588.219 3110.927 C 1584.956 3118.545, 1586.930 3131.083, 1592.298 3136.832 C 1599.424 3144.464, 1612.174 3147.132, 1621.779 3143 C 1627.532 3140.525, 1633.367 3134.731, 1635.737 3129.140 C 1637.676 3124.565, 1637.674 3115.548, 1635.732 3110.901 C 1630.115 3097.458, 1613.353 3091.002, 1600.907 3097.486 M 1979.242 3096.494 C 1967.346 3101.664, 1960.611 3115.474, 1963.953 3127.841 C 1965.509 3133.599, 1971.734 3140.209, 1978.235 3143.006 C 1987.623 3147.045, 2000.362 3144.553, 2007.191 3137.342 C 2019.187 3124.675, 2014.812 3104.303, 1998.500 3096.867 C 1993.665 3094.663, 1983.890 3094.474, 1979.242 3096.494 M 382.215 3106.250 L 382.500 3116.500 387 3116.827 C 400.250 3117.789, 408 3113.982, 408 3106.511 C 408 3098.459, 404.027 3096, 391.015 3096 L 381.930 3096 382.215 3106.250 M 463 3106.619 L 463 3117.239 472.628 3116.817 C 481.983 3116.408, 482.338 3116.305, 485.128 3113.182 C 487.148 3110.922, 488 3108.915, 488 3106.418 C 488 3098.573, 483.937 3096, 471.550 3096 L 463 3096 463 3106.619 M 1137.232 3120.250 L 1137.500 3144.500 1147.717 3144.338 C 1159.541 3144.151, 1163.788 3143.003, 1168.743 3138.653 C 1173.768 3134.240, 1175.952 3128.863, 1175.978 3120.833 C 1176.033 3104.087, 1166.206 3096, 1145.801 3096 L 1136.964 3096 1137.232 3120.250 M 1242.694 3113.250 C 1240.105 3118.887, 1237.990 3123.838, 1237.993 3124.250 C 1237.997 3124.662, 1242.500 3125, 1248 3125 C 1253.500 3125, 1258.003 3124.662, 1258.007 3124.250 C 1258.018 3122.944, 1248.627 3103, 1248 3103 C 1247.670 3103, 1245.283 3107.613, 1242.694 3113.250 M 1388.736 3113.272 C 1386.115 3118.897, 1383.978 3123.838, 1383.986 3124.250 C 1384.006 3125.333, 1404 3125.177, 1404 3124.094 C 1404 3122.656, 1394.763 3102.998, 1394.099 3103.022 C 1393.769 3103.034, 1391.356 3107.646, 1388.736 3113.272" stroke="none" fill="#595d9d" fill-rule="evenodd"/>
</svg>